<svg preserveAspectRatio="none" width="100%" height="100%" overflow="visible" style="display: block;" viewBox="0 0 24 24" fill="none" xmlns="http://www.w3.org/2000/svg">
<g id="Spark">
<path id="Star 1" d="M9.27549 4.11716C9.51157 3.46997 10.4269 3.46997 10.663 4.11716L11.456 6.29111C12.2028 8.33826 13.8156 9.95107 15.8627 10.6978L18.0367 11.4909C18.6839 11.727 18.6839 12.6423 18.0367 12.8784L15.8627 13.6714C13.8156 14.4182 12.2028 16.031 11.456 18.0781L10.663 20.2521C10.4269 20.8993 9.51157 20.8993 9.27549 20.2521L8.48245 18.0781C7.73567 16.031 6.12287 14.4182 4.07572 13.6714L1.90176 12.8784C1.25458 12.6423 1.25458 11.727 1.90176 11.4909L4.07572 10.6978C6.12287 9.95107 7.73567 8.33826 8.48245 6.29111L9.27549 4.11716Z" fill="url(#paint0_linear_0_1176)"/>
<path id="Star 2" d="M19.2866 2.99019C19.3827 2.72652 19.7556 2.72652 19.8518 2.99019L20.1749 3.87587C20.4792 4.70989 21.1362 5.36696 21.9702 5.67121L22.8559 5.9943C23.1196 6.09048 23.1196 6.46338 22.8559 6.55957L21.9702 6.88266C21.1362 7.1869 20.4792 7.84397 20.1749 8.67799L19.8518 9.56368C19.7556 9.82735 19.3827 9.82735 19.2866 9.56368L18.9635 8.67799C18.6592 7.84397 18.0022 7.1869 17.1681 6.88266L16.2824 6.55957C16.0188 6.46338 16.0188 6.09048 16.2824 5.99429L17.1681 5.67121C18.0022 5.36696 18.6592 4.70989 18.9635 3.87587L19.2866 2.99019Z" fill="url(#paint1_linear_0_1176)"/>
</g>
<defs>
<linearGradient id="paint0_linear_0_1176" x1="8.49231" y1="6.64616" x2="11.4462" y2="19.2" gradientUnits="userSpaceOnUse">
<stop stop-color="#FFD528"/>
<stop offset="0.471307" stop-color="#FFCA26"/>
<stop offset="1" stop-color="#FFB92C"/>
</linearGradient>
<linearGradient id="paint1_linear_0_1176" x1="18.9675" y1="4.02052" x2="20.1709" y2="9.13505" gradientUnits="userSpaceOnUse">
<stop stop-color="#FFD528"/>
<stop offset="0.471307" stop-color="#FFCA26"/>
<stop offset="1" stop-color="#FFB92C"/>
</linearGradient>
</defs>
</svg>
